<svg viewBox="0 0 1024 1024" xmlns="http://www.w3.org/2000/svg" width="200" height="200"><path d="M960.83 283.265l-.019-.147a41.56 41.56 0 00-5.915-16.815l-.019-.034a41.536 41.536 0 00-3.516-4.842c-.043-.052-.083-.101-.126-.15a40.08 40.08 0 00-2.221-2.415L711.024 16.165a40.584 40.584 0 00-10.822-7.835 67.105 67.105 0 01-.612-.302 36.228 36.228 0 00-3.39-1.446c-.29-.108-.585-.203-.877-.302a36.853 36.853 0 00-1.745-.56c-.243-.07-.49-.144-.736-.212a40.441 40.441 0 00-2.528-.608 6.017 6.017 0 01-.23-.04 38.696 38.696 0 00-2.47-.404c-.16-.021-.318-.046-.475-.06a39.783 39.783 0 00-4.827-.303H190.66c-67.077 0-121.657 55.722-121.657 124.18v766.832c.04 68.532 54.506 124.094 121.738 124.184h185.898c14.49 0 30.763 1.922 30.763-30.764s-28.053-30.764-30.763-30.764H161.294c-22.39 0-30.764-38.623-30.764-61.527V127.148c0-22.888 39.073-61.484 61.528-61.527h461.451V250.2c0 22.827 8.365 30.764 30.764 30.764h215.345v615.27c-4.809 43.754-37.387 61.526-61.528 61.526H684.272c-22.396 0-61.527 7.928-61.527 30.764 0 22.824 28.733 30.764 51.125 30.764h165.455c67.237 0 121.818-55.722 121.818-124.184V288.34a42.947 42.947 0 00-.313-5.074zM662.846 811.933c16.422.034 31.24-10.042 37.535-25.509 6.288-15.465 2.803-33.274-8.823-45.096l-147.684-150.46a40.134 40.134 0 00-1.636-1.597c-.193-.178-.394-.345-.59-.52-.287-.256-.57-.51-.862-.754a50.361 50.361 0 00-1.18-.948c-.108-.083-.21-.172-.318-.252a44.63 44.63 0 00-1.513-1.098c-.013-.004-.025-.016-.034-.022-15.772-10.893-37.399-9.226-51.375 5.011L338.59 741.328c-10.254 10.444-14.268 25.666-10.525 39.944 3.735 14.28 14.671 25.435 28.67 29.268 14 3.837 28.938-.233 39.198-10.675l78.589-80.225v258.315c0 22.827 18.156 41.334 40.556 41.334 22.393 0 40.55-18.508 40.55-41.334V719.726l78.587 80.06c7.58 7.77 17.882 12.138 28.631 12.147zM315.11 527.073h399.926c22.399 0 30.763-7.937 30.763-30.764 0-22.833-8.364-30.761-30.763-30.761H315.11c-22.402 0-30.763 7.928-30.763 30.76 0 22.828 8.362 30.764 30.763 30.764zm0-123.054h399.926c22.399 0 30.763-7.934 30.763-30.764 0-22.833-8.364-30.764-30.763-30.764H315.11c-22.402 0-30.763 7.931-30.763 30.764 0 22.83 8.362 30.764 30.763 30.764z"/></svg>