<svg viewBox="0 0 1024 1024" xmlns="http://www.w3.org/2000/svg" width="200" height="200"><path d="M580.035 557.179c-74.978-63.775-92.427-53.166-92.427-53.166-31.293 17.346-66.805 28.016-105.124 28.016-41.512 0-79.851-12.185-112.988-32.215C135.21 562.647 35.144 733.942 20.48 941.711l724.07 2.704c-10.915-162.468-89.518-323.523-164.515-387.236zm-197.55 337.797l-53.7-55.562 48.682-254.218-27.259-37.786c6.963-9.544 57.057-10.445 64.614 0l-27.279 37.806 48.681 254.198-53.74 55.562zM269.516 485.97c33.116 20.05 71.455 32.215 112.988 32.215 38.318 0 73.83-10.67 105.124-27.955 67.768-37.253 114.155-108.544 114.155-191.345 0-121.14-98.16-219.3-219.279-219.3-121.14 0-219.32 98.16-219.32 219.3-.02 79.606 42.823 148.685 106.332 187.085zm622.612 196.198c-50.77-43.13-62.546-35.942-62.546-35.942-21.299 11.755-45.26 18.964-71.188 18.964-28.12 0-54.129-8.274-76.472-21.831-90.993 42.537-158.72 158.515-168.715 299.213l490.312 1.843c-7.311-109.978-60.58-219.054-111.39-262.247zM758.395 910.93l-36.393-37.622 32.932-172.073-18.453-25.682c4.731-6.41 38.646-7.086 43.766 0l-18.411 25.682 32.91 172.073-36.351 37.622zm-76.472-276.951c22.343 13.558 48.353 21.832 76.472 21.832 25.928 0 49.89-7.25 71.188-18.965 45.876-25.19 77.312-73.503 77.312-129.536 0-82.084-66.519-148.5-148.5-148.5-82.023 0-148.5 66.416-148.5 148.5 0 53.883 28.938 100.639 72.028 126.669z"/></svg>