<svg viewBox="0 0 1024 1024" xmlns="http://www.w3.org/2000/svg" width="200" height="200"><path d="M707.048 487.619c134.656 0 243.81 109.154 243.81 243.81s-109.154 243.81-243.81 243.81-243.81-109.154-243.81-243.81 109.154-243.81 243.81-243.81zM292.57 73.143v121.905a48.762 48.762 0 0045.105 48.64l3.657.122h341.334a48.762 48.762 0 0048.64-45.105l.122-3.657V73.143h73.142a73.143 73.143 0 0173.143 73.143v347.501a291.255 291.255 0 00-170.666-54.93c-161.573 0-292.572 130.999-292.572 292.572 0 87.38 38.303 165.839 99.06 219.428h-342.87a73.143 73.143 0 01-73.142-73.143V146.286a73.143 73.143 0 0173.143-73.143H292.57zm414.477 512a73.143 73.143 0 00-24.381 142.14v52.907h-73.143a24.381 24.381 0 00-24.21 21.529l-.171 2.852v48.762a24.381 24.381 0 0021.528 24.21l2.853.171H804.57a24.381 24.381 0 0024.21-21.528l.171-2.853v-48.762a24.381 24.381 0 00-21.528-24.21l-2.853-.17h-73.14v-52.932a73.167 73.167 0 00-24.381-142.116zM341.333 536.38H243.81a24.381 24.381 0 00-2.853 48.591l2.853.17h97.523a24.381 24.381 0 000-48.761zM487.62 365.714H243.81a24.381 24.381 0 00-2.852 48.592l2.853.17H487.62a24.381 24.381 0 000-48.762zM658.286 48.762a24.381 24.381 0 0124.38 24.38v97.525a24.381 24.381 0 01-24.38 24.38H365.714a24.381 24.381 0 01-24.38-24.38V73.143a24.381 24.381 0 0124.38-24.381h292.572z"/></svg>