<svg viewBox="0 0 1479 1024" xmlns="http://www.w3.org/2000/svg" width="128" height="128"><path d="M1399.59 855.528h-107.494a209.87 209.87 0 00-209.415-181.432c-107.722 0-196.448 79.17-209.416 181.432h-81.104a78.488 78.488 0 01-79.17-77.805V78.04A78.488 78.488 0 01792.16.235h607.43a78.488 78.488 0 0179.17 77.806v699.682a78.488 78.488 0 01-79.17 77.805zm-818.664 0h-54.6A209.87 209.87 0 00316.91 674.096c-107.722 0-196.448 79.17-209.415 181.432h-54.6A52.325 52.325 0 010 803.658v-285.06c0-103.513 180.636-362.865 264.016-362.865h316.91a52.325 52.325 0 0152.78 51.87v596.055a52.325 52.325 0 01-52.78 51.87zM475.479 285.295s-83.266-3.754-183.14 0c-42.77 1.593-160.388 154.246-160.388 233.303v25.935h343.3V285.295zm-158.57 466.606c72.801 0 131.952 58.013 131.952 129.562S389.71 1011.14 316.91 1011.14a130.813 130.813 0 01-132.065-129.676c0-71.663 59.15-129.676 131.951-129.676zm772.37 0c76.554 0 138.661 60.857 138.661 136.046 0 75.076-62.107 136.046-138.776 136.046a137.411 137.411 0 01-138.548-136.046c0-75.075 62.108-136.046 138.662-136.046z"/></svg>