<svg viewBox="0 0 1024 1024" xmlns="http://www.w3.org/2000/svg" width="200" height="200"><path d="M191.952 255.936v-63.984h396.7v63.984h-396.7zm0 191.952v-63.984h396.7v63.984h-396.7zm0 287.928v-63.984h204.62v63.984h-204.62zM63.984 955.409h317.553v63.984H0V0h916.699v331.373h-63.984V63.984H63.984v891.425zm543.864-317.233v208.46l175.7 103.27 175.7-103.27v-208.46l-175.7-103.27-175.7 103.27zm175.7-177.491l239.684 140.829v281.721l-239.684 140.829-239.684-140.765V601.45l239.684-140.764zm-1.024 342.954a65.904 65.904 0 110-131.807 65.904 65.904 0 010 131.807z"/></svg>