<svg viewBox="0 0 1026 1024" xmlns="http://www.w3.org/2000/svg" width="200" height="200"><path d="M744.192 980.48c-17.408 0-33.536-6.656-45.824-18.944l-18.688-18.688c-8.448-8.448-19.456-13.056-31.232-13.056h-27.136c-35.584 0-64.768-28.928-64.768-64.768v-27.136c0-11.776-4.608-22.784-13.056-30.976l-19.2-19.2c-24.832-25.088-24.576-66.048.512-90.88l18.688-18.688c8.448-8.192 13.056-19.456 13.056-31.232V619.52c0-35.584 28.928-64.768 64.768-64.768h27.136c11.776 0 22.784-4.608 30.976-13.056l18.944-18.944c12.288-12.032 28.416-18.944 45.568-18.944 17.408 0 33.536 6.656 45.824 18.944l18.176 18.176c8.192 8.448 19.456 13.056 31.232 13.056h27.136c35.584 0 64.768 28.928 64.768 64.768v27.136c0 11.776 4.608 22.784 13.056 30.976l18.688 18.688.768.768c25.088 25.344 25.088 66.304 0 91.392L944.896 806.4c-8.448 8.192-13.056 19.456-13.056 31.232v27.136c0 35.584-28.928 64.768-64.768 64.768h-27.136c-11.776 0-22.784 4.608-30.976 13.056l-18.944 18.944c-12.288 12.288-28.416 18.944-45.824 18.944zM622.336 602.624c-9.472 0-16.896 7.68-16.896 16.896v27.136c0 24.576-9.472 47.616-26.88 65.024l-18.944 18.176c-6.4 6.4-6.144 17.152.256 23.808l18.688 18.688c17.152 17.152 26.88 39.936 26.88 64.256V864c0 9.472 7.68 16.896 16.896 16.896h27.136c24.576 0 47.616 9.472 65.024 26.88l.256.256 17.408 19.2c3.072 3.072 7.168 4.608 11.52 4.608 4.608 0 8.704-1.792 12.032-4.864l18.688-18.688c17.408-17.408 40.448-26.88 65.024-26.88h27.136c9.472 0 16.896-7.68 16.896-16.896v-27.136c0-24.576 9.472-47.616 26.88-65.024l21.504-21.504.256-.768c3.328-6.656 2.048-14.336-3.072-19.712l-18.688-18.688c-17.152-17.408-26.624-40.448-26.368-65.024V619.52c0-9.472-7.68-16.896-16.896-16.896h-27.136c-24.576 0-47.616-9.472-65.024-26.88L756.736 556.8c-3.072-3.072-7.424-4.608-11.776-4.608-4.608 0-8.704 1.792-12.032 4.864l-18.688 18.688c-17.408 17.408-40.448 26.88-65.024 26.88h-26.88z"/><path d="M744.192 847.104c-58.112 0-105.472-47.36-105.472-105.472S686.08 636.16 744.192 636.16s105.472 47.36 105.472 105.472-47.36 105.472-105.472 105.472zm0-163.328c-31.744 0-57.856 25.856-57.856 57.856s25.856 57.856 57.856 57.856 57.856-25.856 57.856-57.856-26.112-57.856-57.856-57.856zM102.4 970.496c-15.616 0-27.904-13.312-26.88-28.928 13.312-182.016 131.84-379.136 303.104-435.456l10.24-3.328-8.96-5.888c-56.064-36.608-94.464-92.928-108.288-158.464-13.824-65.536-1.28-132.608 35.584-188.672C353.28 78.592 432.128 36.096 517.12 36.096c48.64 0 96 14.08 136.96 40.96 71.168 46.592 113.664 124.928 113.664 210.176 0 138.24-112.64 250.88-250.88 250.88-204.544 0-372.48 203.52-387.84 407.552-1.024 13.824-12.544 24.832-26.624 24.832zm414.72-880.64c-108.8 0-197.12 88.32-197.12 197.12s88.32 197.12 197.12 197.12 197.12-88.32 197.12-197.12-88.576-197.12-197.12-197.12z"/></svg>