<svg viewBox="0 0 1024 1024" xmlns="http://www.w3.org/2000/svg" width="200" height="200"><path d="M234.412 1016.766a133.623 133.623 0 01-133.44-133.44V189.22a133.623 133.623 0 01133.44-133.44H789.68a133.623 133.623 0 01133.44 133.44v694.016a133.623 133.623 0 01-133.44 133.44zm0-902.23a74.866 74.866 0 00-74.774 74.774v694.016a74.866 74.866 0 0074.774 74.774H789.68a74.866 74.866 0 0074.774-74.774V189.22a74.866 74.866 0 00-74.774-74.774z"/><path d="M292.346 565.651a29.379 29.379 0 110-58.666h439.308a29.379 29.379 0 110 58.666zm0 138.749a29.379 29.379 0 110-58.3h299.736a29.379 29.379 0 110 58.757zm0-277.955a29.379 29.379 0 110-58.757h439.308a29.379 29.379 0 110 58.757z"/></svg>