<svg viewBox="0 0 1024 1024" xmlns="http://www.w3.org/2000/svg" width="200" height="200"><path d="M131.686 346.112c107.725 44.237 269.927 110.387 276.89 113.254 13.722 5.735 28.877 29.492 28.877 54.477V896.82c0 9.011-6.144 13.722-10.445 13.722a8.218 8.218 0 01-3.072-.615C311.706 863.232 160.358 799.334 158.72 798.72c-14.54-6.144-26.829-30.925-26.829-54.477V346.112m-45.875-68.403v466.534c0 36.66 18.842 81.51 55.091 96.666 0 0 151.757 64.102 265.421 111.001 6.758 2.868 13.722 4.096 20.685 4.096 29.696 0 56.115-25.395 56.115-59.392V513.638c0-41.574-24.576-82.944-57.14-96.665-.204 0-250.06-101.786-340.172-139.264zm798.106 68.403v398.336c0 23.347-12.288 48.333-26.83 54.477-1.433.614-152.985 64.512-265.01 110.797a8.218 8.218 0 01-3.072.614c-4.506 0-10.445-4.71-10.445-13.722V513.638c0-24.985 15.155-48.537 28.877-54.476 6.553-2.663 168.755-68.813 276.48-113.05m45.67-68.403c-90.317 37.478-339.968 139.264-339.968 139.264-32.563 13.517-57.14 55.091-57.14 96.665v382.976c0 33.997 26.42 59.392 56.116 59.392a53.934 53.934 0 0020.685-4.096c113.664-46.899 265.42-111.001 265.42-111.001 36.045-14.95 55.092-60.007 55.092-96.666V277.71zm-421.888-154.42c18.227 0 36.045 2.868 47.718 7.373l251.29 100.762-251.29 100.762c-11.673 4.71-29.49 7.372-47.718 7.372s-36.045-2.867-47.718-7.372l-251.29-100.762 251.29-100.762c11.673-4.505 29.49-7.372 47.718-7.372m0-45.67c-23.347 0-46.9 3.48-64.717 10.649L86.016 231.424l357.171 143.155c17.818 7.168 41.37 10.65 64.717 10.65s46.9-3.482 64.717-10.65l357.171-143.155L572.621 88.269c-17.818-7.168-41.37-10.65-64.717-10.65zm0 0"/></svg>