<svg viewBox="0 0 1024 1024" xmlns="http://www.w3.org/2000/svg" width="200" height="200"><path d="M396.61 0a117.029 117.029 0 00232.419 6.612 509.367 509.367 0 01149.884 66.736 117.029 117.029 0 00158.925 165.361 507.904 507.904 0 0160.035 149.328 117.029 117.029 0 000 227.621 508.957 508.957 0 01-60.035 149.358 117.029 117.029 0 00-158.954 165.303 508.43 508.43 0 01-149.885 66.764 116.97 116.97 0 00-232.39 6.583 507.992 507.992 0 01-158.807-61.118 117.029 117.029 0 00-164.718-165.83l-4.096 3.833-7.724-12.288A508.928 508.928 0 010 618.876h1.17a117.029 117.029 0 100-234.057H0a508.782 508.782 0 0169.047-161.704A117.029 117.029 0 10238.329 61.733l-3.745-3.95 3.218 3.364A508.723 508.723 0 01395.381.263L396.61 0zM513.2 282.42a204.8 204.8 0 100 409.6 204.8 204.8 0 000-409.6z"/></svg>