<svg viewBox="0 0 1024 1024" xmlns="http://www.w3.org/2000/svg" width="200" height="200"><path d="M1024.2 360.4v548.4c0 7-5.8 12.8-12.8 12.8h-128c-7 0-12.8-5.8-12.8-12.8V512c0-28.2-23.4-51.2-52.2-51.2H205.8c-28.8 0-52.2 23-52.2 51.2v396.8c0 7-5.8 12.8-12.8 12.8h-128c-7 0-12.8-5.8-12.8-12.8V360.4c0-31 18.8-58.8 47.2-70.8l435.2-181.4c7.8-3.2 21-5.8 29.6-5.8s21.6 2.6 29.6 5.8L977 289.6c28.4 12 47.2 39.8 47.2 70.8zM819.4 832v76.8c0 7-5.8 12.8-12.8 12.8H217.8c-7 0-12.8-5.8-12.8-12.8l.2-76.8c0-7 5.8-12.8 12.8-12.8h588.6c7 0 12.8 5.8 12.8 12.8zm0-153.6v76.8c0 7-5.8 12.8-12.8 12.8H218.2c-7 0-12.8-5.8-12.8-12.8l.2-76.8c0-7 5.8-12.8 12.8-12.8h588.2c7 0 12.8 5.8 12.8 12.8zm0-153.6v76.8c0 7-5.8 12.8-12.8 12.8h-588c-7 0-12.8-5.8-12.8-12.8l.2-76.8c0-7 5.8-12.8 12.8-12.8h587.8c7 0 12.8 5.8 12.8 12.8z"/></svg>