<svg xmlns="http://www.w3.org/2000/svg" viewBox="0 0 167.01 45.24"><defs><style>.cls-1{fill:#91c52a;}.cls-2{fill:#fff;}</style></defs><title>资源 1</title><g id="图层_2" data-name="图层 2"><g id="图层_1-2" data-name="图层 1"><path class="cls-1" d="M50.52,20.73,40.21,6.66l0-.06L40,6.45l0-.05C39.47,5.74,34.53,0,27.1,0h-9.6a3.58,3.58,0,0,0-2.88,1.47L12.34,4.6h0L3.86,16.26l-.78,1.07L.68,20.62a3.57,3.57,0,0,0-.05,4.12c3.44,5,9.55,13.69,11.89,16,4,4,9.7,4.42,10.8,4.46H33.94a3.58,3.58,0,0,0,2.88-1.47l3.95-5.43h0l9.76-13.41A3.55,3.55,0,0,0,50.52,20.73ZM37.45,35.48l-3.57,4.9a.93.93,0,0,1-.75.38H23.62c-.52,0-5.12-.27-8.21-3.36-2-2-7.94-10.49-10.47-14.16a.93.93,0,0,1,0-1.07l2.87-3.94a.93.93,0,0,1,1.51,0C12.64,23.09,18.46,31.33,20,32.84a6.72,6.72,0,0,0,3.82,1.47h4.06a.93.93,0,0,0,.77-1.45L25,27.61a.93.93,0,0,1,.4-1.37l4.3-1.86a.93.93,0,0,1,1.13.33l6.6,9.7A.93.93,0,0,1,37.45,35.48Zm8.82-12.12-2.84,3.9a.93.93,0,0,1-1.5,0L31.84,13.5l-.06-.07c-.68-.76-2.68-2.5-4.83-2.5H23.25a.93.93,0,0,0-.77,1.45l3.63,5.34a.93.93,0,0,1-.4,1.37l-4.3,1.86a.93.93,0,0,1-1.13-.33l-6.5-9.56a.93.93,0,0,1,0-1.07l3.74-5.14a.93.93,0,0,1,.75-.38H27c5.66,0,9.47,4.44,9.88,4.94l.11.14,9.32,12.71A.93.93,0,0,1,46.27,23.36Z"/><path class="cls-2" d="M138.87,17.07a.73.73,0,0,0,1,.3l3.49-1.84a.73.73,0,0,0,.3-1,61.94,61.94,0,0,0-3.52-5.59.74.74,0,0,0-1-.22L136,10.43a.73.73,0,0,0-.28,1Q137.34,14.26,138.87,17.07Z"/><path class="cls-2" d="M61.39,13.3l0,0q2.32,1.88,3.63,3.12a.62.62,0,0,0,.9-.06l2.6-3.1a.62.62,0,0,0-.1-.9L64.12,9.14a.63.63,0,0,0-.84.07L60.8,11.89a.62.62,0,0,0,0,.89Z"/><path class="cls-2" d="M91.63,24.09h-1a.62.62,0,0,1-.63-.62q0-3.11.11-6.31a.62.62,0,0,0-.62-.64H75.87a.62.62,0,0,1-.52-1l.11-.17A.63.63,0,0,1,76,15H90.83a.62.62,0,0,0,.62-.62v-3a.62.62,0,0,0-.62-.62H78.16l.4-.8a11.5,11.5,0,0,1,.66-1.2l-5.29-.25a.62.62,0,0,0-.59.37,23.26,23.26,0,0,1-5.58,7.8.61.61,0,0,0,0,.9,33.38,33.38,0,0,1,2.45,2.74l.27.27-.22,2.88a.62.62,0,0,1-.62.58H68.28a.62.62,0,0,0-.62.62v3a.62.62,0,0,0,.62.62h.81a.62.62,0,0,1,.62.69l-.65,6.2a.62.62,0,0,0,.62.69H84.54q-.27.8-2,.8-1.06,0-2.9-.13h-1.9a.62.62,0,0,0-.58.85q.49,1.28.86,2.44a.61.61,0,0,0,.6.43q1.18,0,3.26-.13h2.39q4.74,0,5.27-3.74a.62.62,0,0,1,.62-.52h1.07a.62.62,0,0,0,.62-.62V32.42a.62.62,0,0,0-.62-.62h-.75a.62.62,0,0,1-.62-.62V29a.62.62,0,0,1,.62-.62h1.15a.62.62,0,0,0,.62-.62v-3A.62.62,0,0,0,91.63,24.09ZM75,21.63a1,1,0,0,1,1-.88l7.92,0a1,1,0,0,1,1,1l-.05,1.45a1,1,0,0,1-1,.93h-2.1l.07-1.43a1,1,0,0,0-1-1.08H79a1.16,1.16,0,0,0-1.14,1.08l-.07,1.43H75.88a1,1,0,0,1-1-1Zm9.84,9a1,1,0,0,1-1,.93H75.31a1,1,0,0,1-1-1l.13-1.47a1,1,0,0,1,1-.89h2.1l-.08,1.43a1,1,0,0,0,1,1.08h1.85a1.16,1.16,0,0,0,1.14-1.08l.07-1.42h2.35a1,1,0,0,1,1,1Z"/><path class="cls-2" d="M66,23.93l2.6-3.1a.62.62,0,0,0-.1-.9l-4.34-3.25a.63.63,0,0,0-.84.07L60.8,19.43a.62.62,0,0,0,0,.89l.54.51,0,0q2.32,1.88,3.63,3.12A.62.62,0,0,0,66,23.93Z"/><path class="cls-2" d="M101.41,17a.76.76,0,0,0,1,.31l3.43-1.81a.77.77,0,0,0,.32-1A62,62,0,0,0,102.7,9a.77.77,0,0,0-1-.23l-3.1,1.69a.76.76,0,0,0-.29,1.05Q99.9,14.26,101.41,17Z"/><path class="cls-2" d="M128.32,35.29h0q-12.19.23-16.55.1h-.55a.76.76,0,0,1-.36-1.43,37,37,0,0,0,3.28-2.15.76.76,0,0,1,1.21.62V34a.76.76,0,0,0,.76.76h3.52a.76.76,0,0,0,.76-.76V32.74a.76.76,0,0,1,1.09-.69q2.39,1.15,4.92,2.58a.77.77,0,0,0,1-.25l1.81-2.9a.76.76,0,0,0-.33-1.1l-.68-.3q-3.29-1.41-5.43-2.2a.76.76,0,0,0-.88.28l-.13.19a.76.76,0,1,1-.63-1.2h6.18a.76.76,0,0,0,.76-.76V17.67a.76.76,0,0,0-.76-.76h-6.18a.76.76,0,0,1-.76-.76v-.2a.76.76,0,0,1,.76-.76h7.25a.76.76,0,0,0,.76-.76V11.82a.76.76,0,0,0-.76-.76h-7.25a.76.76,0,0,1-.76-.76V9.16a.76.76,0,0,0-.76-.76H116.1a.76.76,0,0,0-.76.76v1.13a.76.76,0,0,1-.76.76h-7a.76.76,0,0,0-.76.76v2.59a.76.76,0,0,0,.76.76h7a.76.76,0,0,1,.76.76v.2a.76.76,0,0,1-.76.76h-6.18a.76.76,0,0,0-.76.76v8.71a.76.76,0,0,0,.76.76h2.18a.76.76,0,0,1,.37,1.44,31.12,31.12,0,0,1-4,1.72.77.77,0,0,0-.41,1.11q1.48,2.52,2.05,3.44a5.17,5.17,0,0,1-3.07-2.33.79.79,0,0,1-.12-.42V19.93a.76.76,0,0,0-.76-.76H98.28a.76.76,0,0,0-.76.76v3.66a.76.76,0,0,0,.76.76h1.13a.76.76,0,0,1,.76.76V32a.75.75,0,0,1-.23.54q-.8.78-2.17,2a.77.77,0,0,0-.22.84l1.38,3.88a.77.77,0,0,0,1.29.25q1.13-1.23,2.4-2.46a.76.76,0,0,1,1.08,0q2.3,2.48,7,2.6h1.06q9.44.25,16.06.27a.75.75,0,0,0,.72-.53c.26-.82.56-1.72.9-2.7,0-.08,0-.16.06-.26C129.82,35.19,128.32,35.29,128.32,35.29Zm-7.93-13.76a.76.76,0,0,1,.76-.76h1.4a.76.76,0,0,1,.76.76v.86a.76.76,0,0,1-.76.76h-1.4a.76.76,0,0,1-.76-.76Zm-8,0a.76.76,0,0,1,.76-.76h1.4a.76.76,0,0,1,.76.76v.86a.76.76,0,0,1-.76.76h-1.4a.76.76,0,0,1-.76-.76Z"/><path class="cls-2" d="M165.79,35.29h0q-12.21.23-16.58.1a8.87,8.87,0,0,1-4.25-.93h3.66a.73.73,0,0,0,.73-.73V30.93a.73.73,0,0,1,.73-.73h2a.73.73,0,0,1,.73.73v2.53a.73.73,0,0,0,.73.73h3.32a.73.73,0,0,0,.73-.73V30.93a.73.73,0,0,1,.73-.73h3q-.13,1.2-1.2,1.06h-1.4a.73.73,0,0,0-.7.93q.27.93.51,1.94a.74.74,0,0,0,.74.57q.84,0,1.89-.12h1.23q4-.13,3.72-4.52V17.64a.73.73,0,0,0-.73-.73h-2.5a.73.73,0,0,1-.36-1.37l2.82-1.61a.73.73,0,0,0,.37-.63V10.46a.73.73,0,0,0-.73-.73H145.13a.73.73,0,0,0-.73.73v2.39a.73.73,0,0,0,.73.73h3.12l-.78.65a.73.73,0,0,0,.11,1.2l.19.11a.73.73,0,0,1-.36,1.37h-2.16a.73.73,0,0,0-.73.73V32.41a.73.73,0,0,1-1.28.48l-.29-.36a.75.75,0,0,1-.16-.46V19.9a.73.73,0,0,0-.73-.73h-6.38a.73.73,0,0,0-.73.73v3.72a.73.73,0,0,0,.73.73h1.2a.73.73,0,0,1,.73.73V32a.72.72,0,0,1-.22.52q-.81.79-2.19,2a.74.74,0,0,0-.21.8l1.41,4a.73.73,0,0,0,1.23.24q1.15-1.26,2.47-2.53a.73.73,0,0,1,1,0q2.3,2.51,7,2.63h1.06q9.45.25,16.09.27a.72.72,0,0,0,.69-.51c.28-.9.62-1.9,1-3S165.79,35.29,165.79,35.29Zm-7.5-14.79h2.26a.73.73,0,0,1,0,1.46h-2.26a.73.73,0,0,1,0-1.46ZM157.56,26a.73.73,0,0,1,.73-.73h2.26a.73.73,0,0,1,.73.73v.13a.73.73,0,0,1-.73.73h-2.26a.73.73,0,0,1-.73-.73Zm-2.91-12.43h1a.73.73,0,0,1,.37,1.36l-.49.29a.73.73,0,0,1-.73,0l-.51-.29A.73.73,0,0,1,154.64,13.58ZM150,20.5h2A.73.73,0,0,1,152,22h-2a.73.73,0,0,1,0-1.46ZM149.32,26a.73.73,0,0,1,.73-.73h2a.73.73,0,0,1,.73.73v.13a.73.73,0,0,1-.73.73h-2a.73.73,0,0,1-.73-.73Z"/><rect class="cls-2" x="61.63" y="25.03" width="5.33" height="15.27" rx="1.42" ry="1.42"/></g></g></svg>