<?xml version="1.0" standalone="no"?><!DOCTYPE svg PUBLIC "-//W3C//DTD SVG 1.1//EN" "http://www.w3.org/Graphics/SVG/1.1/DTD/svg11.dtd"><svg t="1510735772718" class="icon" style="" viewBox="0 0 1024 1024" version="1.1" xmlns="http://www.w3.org/2000/svg" p-id="11757" xmlns:xlink="http://www.w3.org/1999/xlink" width="200" height="200"><defs><style type="text/css"></style></defs><path d="M99.55567 85.31923A85.276421 85.276421 0 0 1 184.960091 0.000142H686.933285L938.666548 256.000071v683.605144A84.337754 84.337754 0 0 1 854.172349 1023.999858H184.049869A84.465754 84.465754 0 0 1 99.55567 939.562548V85.31923z" fill="#fcbf19" p-id="11758"></path><path d="M938.666548 256.000071H772.152817a85.33331 85.33331 0 0 1-85.219532-85.247976V0.000142L938.666548 256.000071z" fill="#fdcf53" p-id="11759"></path><path d="M679.509287 428.672023l134.954629 271.07548H250.595628c68.394648-62.677316 212.636385-196.76439 212.636386-196.764389l57.25865 105.415081 159.018623-179.726172zM333.795605 473.130677c-29.823992 0-53.987541-25.656882-53.987541-57.343984 0-31.67288 24.163549-57.372429 53.987541-57.372428 29.752881 0 53.930652 25.713771 53.930652 57.372428 0.014222 31.687102-24.163549 57.343984-53.930652 57.343984z" fill="#FFFFFF" p-id="11760"></path></svg>